<svg width="942" height="440" viewBox="0 0 942 440" fill="none" xmlns="http://www.w3.org/2000/svg">
<path d="M7.96667 93V16.6995H61.938C61.938 17.672 61.9006 18.9062 61.8258 20.4023C61.751 21.8236 61.6388 23.3197 61.4892 24.8906C61.4144 26.3867 61.2648 27.8454 61.0404 29.2667C60.816 30.6879 60.5168 31.8848 60.1427 32.8573H26.7052V50.1371H56.3277C56.3277 51.1095 56.2903 52.3438 56.2155 53.8399C56.1407 55.2612 56.0285 56.7573 55.8789 58.3282C55.8041 59.8243 55.6545 61.2829 55.4301 62.7042C55.2056 64.1255 54.9064 65.3224 54.5324 66.2948H26.7052V93H7.96667ZM117.847 16.6995C117.847 17.5972 117.809 18.7566 117.735 20.1779C117.66 21.5244 117.547 22.9831 117.398 24.554C117.323 26.1249 117.173 27.6584 116.949 29.1545C116.725 30.5757 116.425 31.81 116.051 32.8573H102.362V76.8423H117.847C117.847 77.7399 117.809 78.8994 117.735 80.3207C117.66 81.6671 117.547 83.1258 117.398 84.6967C117.323 86.2676 117.173 87.8011 116.949 89.2972C116.725 90.7185 116.425 91.9527 116.051 93H68.4758V76.8423H83.5115V32.8573H68.4758V16.6995H117.847ZM129.597 93V16.6995H183.568C183.568 17.672 183.531 18.9062 183.456 20.4023C183.381 21.8236 183.269 23.3197 183.119 24.8906C183.045 26.3867 182.895 27.8454 182.671 29.2667C182.446 30.6879 182.147 31.8848 181.773 32.8573H148.335V50.1371H177.958C177.958 51.1095 177.92 52.3438 177.846 53.8399C177.771 55.2612 177.659 56.7573 177.509 58.3282C177.434 59.8243 177.285 61.2829 177.06 62.7042C176.836 64.1255 176.537 65.3224 176.163 66.2948H148.335V93H129.597ZM206.03 16.1385H218.26C221.103 16.1385 223.497 16.4003 225.441 16.9239C227.386 17.3728 229.032 18.233 230.379 19.5047C231.8 20.7764 233.034 22.5717 234.081 24.8906C235.129 27.1347 236.213 30.0147 237.335 33.5305L255.625 93H236.774L230.827 73.5883H207.713L202.327 93H183.813L206.03 16.1385ZM211.416 59.8991H226.564L218.933 34.877H218.372L211.416 59.8991ZM301.841 16.6995L315.194 74.1493H315.755L329.556 16.6995H347.733L361.871 74.2615H362.433L373.765 16.6995H392.167L379.6 76.169C378.852 79.7596 377.954 82.7144 376.907 85.0333C375.935 87.2775 374.7 89.0354 373.204 90.307C371.783 91.5787 370.025 92.439 367.931 92.8878C365.911 93.3366 363.48 93.561 360.637 93.561H349.192L338.42 50.1371L331.912 76.169C331.089 79.7596 330.154 82.7144 329.107 85.0333C328.06 87.2775 326.751 89.0354 325.18 90.307C323.684 91.5787 321.889 92.439 319.794 92.8878C317.774 93.3366 315.343 93.561 312.501 93.561H301.504L282.541 16.6995H301.841ZM398.219 54.8498C398.219 48.1922 399.079 42.3948 400.799 37.4577C402.52 32.5206 404.951 28.4438 408.093 25.2272C411.234 21.9358 415.012 19.5047 419.426 17.9338C423.914 16.3629 428.888 15.5775 434.349 15.5775C439.81 15.5775 444.747 16.3629 449.16 17.9338C453.649 19.5047 457.464 21.9358 460.605 25.2272C463.747 28.4438 466.141 32.5206 467.787 37.4577C469.507 42.3948 470.367 48.1922 470.367 54.8498C470.367 61.5822 469.507 67.4169 467.787 72.354C466.141 77.2163 463.747 81.2931 460.605 84.5845C457.464 87.8011 453.649 90.1948 449.16 91.7657C444.747 93.3366 439.81 94.1221 434.349 94.1221C428.888 94.1221 423.914 93.3366 419.426 91.7657C415.012 90.1948 411.234 87.8011 408.093 84.5845C404.951 81.2931 402.52 77.2163 400.799 72.354C399.079 67.4169 398.219 61.5822 398.219 54.8498ZM417.406 54.8498C417.406 62.7042 418.827 68.6512 421.67 72.6906C424.512 76.73 428.739 78.7498 434.349 78.7498C439.959 78.7498 444.148 76.7674 446.916 72.8028C449.759 68.7634 451.18 62.779 451.18 54.8498C451.18 46.9953 449.759 41.0484 446.916 37.0089C444.148 32.9695 439.959 30.9498 434.349 30.9498C428.739 30.9498 424.512 32.9695 421.67 37.0089C418.827 41.0484 417.406 46.9953 417.406 54.8498ZM519.433 16.6995C523.697 16.6995 527.437 17.3354 530.654 18.607C533.945 19.8039 536.713 21.5244 538.957 23.7685C541.201 26.0127 542.884 28.6682 544.006 31.7352C545.128 34.8022 545.69 38.1684 545.69 41.8338C545.69 47.0701 544.53 51.7828 542.211 55.9718C539.892 60.0861 536.489 63.1905 532 65.285L550.402 93C549.43 93.1496 548.308 93.2244 547.036 93.2244C545.764 93.2992 544.493 93.374 543.221 93.4488C542.024 93.5236 540.902 93.561 539.855 93.561C538.882 93.561 538.097 93.561 537.498 93.561C535.554 93.561 533.908 93.4114 532.561 93.1122C531.29 92.813 530.205 92.3642 529.307 91.7657C528.41 91.1673 527.624 90.4567 526.951 89.6338C526.278 88.7361 525.567 87.7263 524.819 86.6042L512.252 67.8657H502.378V93H483.639V16.6995H519.433ZM515.955 51.708C519.545 51.708 522.201 50.8477 523.921 49.1272C525.642 47.4067 526.502 45.1252 526.502 42.2826C526.502 39.3653 525.642 37.0837 523.921 35.438C522.201 33.7175 519.545 32.8573 515.955 32.8573H502.378V51.708H515.955ZM558.919 16.6995H577.657V76.8423H612.553C612.553 77.8147 612.516 79.049 612.441 80.5451C612.366 81.9664 612.254 83.4624 612.104 85.0333C612.03 86.5294 611.88 87.9881 611.656 89.4094C611.431 90.8307 611.132 92.0275 610.758 93H558.919V16.6995ZM621.596 16.6995H653.239C658.849 16.6995 663.898 17.485 668.387 19.0559C672.95 20.6268 676.802 22.9831 679.944 26.1249C683.086 29.2667 685.517 33.2313 687.237 38.0188C688.958 42.8063 689.818 48.4166 689.818 54.8498C689.818 61.2829 688.958 66.8933 687.237 71.6807C685.517 76.4682 683.086 80.4329 679.944 83.5746C676.802 86.7164 672.95 89.0728 668.387 90.6437C663.898 92.2146 658.849 93 653.239 93H621.596V16.6995ZM640.335 32.8573V76.8423H653.239C659.073 76.8423 663.412 74.9347 666.255 71.1197C669.097 67.2299 670.519 61.8066 670.519 54.8498C670.519 47.893 669.097 42.507 666.255 38.692C663.412 34.8022 659.073 32.8573 653.239 32.8573H640.335ZM723.004 54.8498C723.004 48.1922 723.902 42.3948 725.697 37.4577C727.492 32.5206 730.073 28.4438 733.439 25.2272C736.805 21.9358 740.882 19.5047 745.67 17.9338C750.532 16.3629 755.993 15.5775 762.052 15.5775C763.847 15.5775 765.68 15.6523 767.55 15.8019C769.495 15.8767 771.365 16.0263 773.16 16.2507C775.03 16.4751 776.788 16.7369 778.434 17.0361C780.08 17.2606 781.464 17.5224 782.586 17.8216C782.586 18.8689 782.511 20.1031 782.361 21.5244C782.286 22.9457 782.137 24.367 781.912 25.7883C781.763 27.2095 781.538 28.556 781.239 29.8277C781.015 31.0994 780.753 32.1466 780.454 32.9695C779.556 32.7451 778.359 32.5206 776.863 32.2962C775.367 31.997 773.759 31.7726 772.038 31.623C770.318 31.3986 768.56 31.249 766.765 31.1742C765.044 31.0246 763.473 30.9498 762.052 30.9498C755.469 30.9498 750.495 32.9695 747.128 37.0089C743.837 41.0484 742.191 46.9953 742.191 54.8498C742.191 62.7042 743.837 68.6512 747.128 72.6906C750.495 76.73 755.469 78.7498 762.052 78.7498C763.847 78.7498 765.717 78.7124 767.662 78.6376C769.607 78.4879 771.515 78.3383 773.385 78.1887C775.255 77.9643 776.975 77.7399 778.546 77.5155C780.117 77.2911 781.464 77.0293 782.586 76.73C782.586 77.7025 782.511 78.8994 782.361 80.3207C782.286 81.7419 782.137 83.2006 781.912 84.6967C781.763 86.118 781.538 87.4645 781.239 88.7361C781.015 90.0078 780.753 91.0551 780.454 91.8779C779.481 92.1772 778.247 92.4764 776.751 92.7756C775.33 93 773.759 93.2244 772.038 93.4488C770.393 93.6732 768.672 93.8228 766.877 93.8977C765.156 94.0473 763.548 94.1221 762.052 94.1221C755.993 94.1221 750.532 93.3366 745.67 91.7657C740.882 90.1948 736.805 87.8011 733.439 84.5845C730.073 81.2931 727.492 77.1789 725.697 72.2418C723.902 67.3047 723.004 61.5074 723.004 54.8498ZM793.522 63.0408V16.6995H812.261V63.0408C812.261 65.8086 812.485 68.1649 812.934 70.1099C813.383 71.98 814.131 73.5135 815.178 74.7103C816.3 75.9072 817.759 76.7674 819.554 77.2911C821.35 77.7399 823.594 77.9643 826.287 77.9643C828.98 77.9643 831.224 77.7399 833.019 77.2911C834.814 76.7674 836.273 75.9072 837.395 74.7103C838.517 73.5135 839.303 71.98 839.751 70.1099C840.2 68.1649 840.425 65.8086 840.425 63.0408V16.6995H859.163V63.0408C859.163 68.9504 858.378 73.8875 856.807 77.8521C855.236 81.8167 853.029 84.9959 850.187 87.3897C847.344 89.7834 843.866 91.5039 839.751 92.5512C835.712 93.5984 831.224 94.1221 826.287 94.1221C821.35 94.1221 816.861 93.5984 812.822 92.5512C808.782 91.5039 805.341 89.7834 802.499 87.3897C799.656 84.9959 797.45 81.8167 795.879 77.8521C794.308 73.8875 793.522 68.9504 793.522 63.0408ZM874.938 16.6995H906.804C912.116 16.6995 916.679 17.4102 920.494 18.8314C924.309 20.1779 927.413 22.0854 929.807 24.554C932.275 26.9477 934.071 29.7529 935.193 32.9695C936.39 36.1861 936.988 39.6271 936.988 43.2925C936.988 46.8831 936.502 50.2493 935.529 53.3911C934.557 56.4581 933.098 59.1136 931.153 61.3577C929.208 63.6019 926.702 65.3972 923.635 66.7437C920.643 68.0153 917.053 68.6512 912.864 68.6512C908.675 68.6512 905.084 68.0153 902.092 66.7437C899.1 65.472 896.294 63.1904 893.676 59.8991V93H874.938V16.6995ZM893.676 32.8573V52.4934H907.029C910.694 52.4934 913.387 51.5958 915.108 49.8005C916.903 47.9304 917.801 45.6114 917.801 42.8437C917.801 41.4224 917.576 40.1133 917.127 38.9164C916.753 37.7196 916.08 36.6723 915.108 35.7746C914.21 34.877 912.976 34.1663 911.405 33.6427C909.909 33.1191 908.076 32.8573 905.907 32.8573H893.676Z" fill="#8F1739"/>
<path d="M0.5 405.1C0.5 404.667 0.5 404.183 0.5 403.65C0.533333 403.083 0.566667 402.533 0.6 402C0.633333 401.433 0.683333 400.9 0.75 400.4C0.816667 399.867 0.883333 399.4 0.95 399H4.5V396.65C4.5 394.95 4.78333 393.517 5.35 392.35C5.91667 391.183 6.68333 390.25 7.65 389.55C8.65 388.817 9.8 388.3 11.1 388C12.4333 387.667 13.85 387.5 15.35 387.5C16.65 387.5 17.8667 387.6 19 387.8C20.1333 387.967 21.1 388.167 21.9 388.4C21.9 388.833 21.8667 389.333 21.8 389.9C21.7333 390.433 21.65 390.983 21.55 391.55C21.45 392.117 21.3333 392.667 21.2 393.2C21.0667 393.7 20.9333 394.133 20.8 394.5C20.1 394.267 19.3167 394.067 18.45 393.9C17.5833 393.7 16.6667 393.6 15.7 393.6C13.5667 393.6 12.5 394.617 12.5 396.65V399.6C14.1 399.367 15.5667 399.217 16.9 399.15C18.2333 399.05 19.65 399 21.15 399C21.15 399.6 21.1167 400.15 21.05 400.65C21.0167 401.15 20.95 401.633 20.85 402.1C20.75 402.567 20.6333 403.05 20.5 403.55C20.3667 404.017 20.2167 404.533 20.05 405.1C18.8833 405.1 17.7167 405.083 16.55 405.05C15.4167 405.017 14.0667 404.933 12.5 404.8V424H4.5V405.1H0.5ZM32.45 399V424H24.45V399H32.45ZM23.55 392.15C24.2167 391.317 25 390.483 25.9 389.65C26.8 388.783 27.65 388.05 28.45 387.45C29.25 388.05 30.0833 388.783 30.95 389.65C31.85 390.517 32.6333 391.35 33.3 392.15C32.6333 392.95 31.85 393.8 30.95 394.7C30.05 395.567 29.2167 396.283 28.45 396.85C27.6833 396.25 26.8333 395.533 25.9 394.7C25 393.833 24.2167 392.983 23.55 392.15ZM45.2551 411.35L36.6051 399H45.6551L49.9551 405L54.4551 399H62.8051L54.0551 410.75L63.5551 424C63.1551 424.067 62.6717 424.1 62.1051 424.1C61.5717 424.133 61.0217 424.167 60.4551 424.2C59.9217 424.233 59.4217 424.25 58.9551 424.25C58.4884 424.25 58.1217 424.25 57.8551 424.25C57.0217 424.25 56.3217 424.183 55.7551 424.05C55.2217 423.917 54.7384 423.733 54.3051 423.5C53.9051 423.233 53.5384 422.9 53.2051 422.5C52.8717 422.1 52.5051 421.633 52.1051 421.1L49.3051 417.15L44.2051 424H35.8551L45.2551 411.35ZM64.2695 405.1C64.2695 404.667 64.2695 404.183 64.2695 403.65C64.3029 403.083 64.3362 402.533 64.3695 402C64.4029 401.433 64.4529 400.9 64.5195 400.4C64.5862 399.867 64.6529 399.4 64.7195 399H68.2695V395.45C68.7362 394.95 69.2862 394.467 69.9195 394C70.5862 393.533 71.2695 393.1 71.9695 392.7C72.7029 392.3 73.4362 391.95 74.1695 391.65C74.9362 391.35 75.6362 391.133 76.2695 391V399.6C77.8695 399.367 79.3362 399.217 80.6695 399.15C82.0029 399.05 83.4195 399 84.9195 399C84.9195 399.6 84.8862 400.15 84.8195 400.65C84.7862 401.15 84.7195 401.633 84.6195 402.1C84.5195 402.567 84.4029 403.05 84.2695 403.55C84.1362 404.017 83.9862 404.533 83.8195 405.1C82.6529 405.1 81.4862 405.083 80.3195 405.05C79.1862 405.017 77.8362 404.933 76.2695 404.8V414.15C76.2695 415.817 76.6862 416.95 77.5195 417.55C78.3862 418.117 79.3862 418.4 80.5195 418.4C81.9195 418.4 83.3862 418.25 84.9195 417.95C84.9195 418.35 84.8862 418.817 84.8195 419.35C84.7862 419.85 84.7195 420.367 84.6195 420.9C84.5195 421.4 84.4195 421.9 84.3195 422.4C84.2195 422.867 84.1195 423.267 84.0195 423.6C83.3195 423.867 82.4195 424.083 81.3195 424.25C80.2529 424.417 79.2195 424.5 78.2195 424.5C74.9862 424.5 72.5195 423.783 70.8195 422.35C69.1195 420.883 68.2695 418.533 68.2695 415.3V405.1H64.2695ZM96.3527 399V413.15C96.3527 414.95 96.5361 416.283 96.9027 417.15C97.2694 417.983 98.0194 418.4 99.1527 418.4C100.119 418.4 100.936 417.867 101.603 416.8C102.269 415.733 102.803 414.317 103.203 412.55C103.603 410.75 103.886 408.683 104.053 406.35C104.253 403.983 104.353 401.533 104.353 399H112.353V424H104.353V417C103.819 418.433 103.236 419.633 102.603 420.6C102.003 421.567 101.336 422.333 100.603 422.9C99.9027 423.467 99.1361 423.867 98.3027 424.1C97.5027 424.367 96.6527 424.5 95.7527 424.5C94.8527 424.5 93.9527 424.35 93.0527 424.05C92.1861 423.75 91.4027 423.25 90.7027 422.55C90.0027 421.817 89.4361 420.833 89.0027 419.6C88.5694 418.367 88.3527 416.833 88.3527 415V399H96.3527ZM125.682 399C125.915 400.7 126.082 402.217 126.182 403.55C126.315 404.85 126.382 406.2 126.382 407.6C127.649 404.567 129.149 402.3 130.882 400.8C132.649 399.267 134.449 398.5 136.282 398.5C136.482 399.633 136.632 400.917 136.732 402.35C136.832 403.75 136.882 405.117 136.882 406.45C134.849 406.45 133.165 406.65 131.832 407.05C130.532 407.45 129.482 408.167 128.682 409.2C127.915 410.2 127.349 411.583 126.982 413.35C126.649 415.117 126.449 417.383 126.382 420.15V424H118.382V408C118.382 406.233 118.315 404.667 118.182 403.3C118.082 401.933 117.982 400.5 117.882 399H125.682ZM138.716 411.5C138.716 409.3 139.05 407.383 139.716 405.75C140.383 404.117 141.3 402.767 142.466 401.7C143.666 400.6 145.083 399.8 146.716 399.3C148.35 398.767 150.133 398.5 152.066 398.5C155.866 398.5 158.783 399.567 160.816 401.7C162.883 403.833 163.916 406.983 163.916 411.15C163.483 412.183 162.916 413.1 162.216 413.9C158.983 413.9 156.15 413.883 153.716 413.85C151.283 413.783 149.05 413.6 147.016 413.3C147.283 414.867 147.9 416.117 148.866 417.05C149.833 417.95 151.316 418.4 153.316 418.4C155.283 418.4 157.016 418.3 158.516 418.1C160.05 417.9 161.316 417.667 162.316 417.4C162.316 417.833 162.283 418.333 162.216 418.9C162.183 419.467 162.116 420.033 162.016 420.6C161.95 421.133 161.85 421.667 161.716 422.2C161.616 422.7 161.5 423.133 161.366 423.5C160.5 423.767 159.366 424 157.966 424.2C156.6 424.4 155.05 424.5 153.316 424.5C148.616 424.5 145 423.417 142.466 421.25C139.966 419.083 138.716 415.833 138.716 411.5ZM146.966 410.5C148.566 410.1 150.066 409.833 151.466 409.7C152.866 409.533 154.383 409.433 156.016 409.4C155.85 407.8 155.433 406.6 154.766 405.8C154.1 405 153.083 404.6 151.716 404.6C150.283 404.6 149.15 405.117 148.316 406.15C147.516 407.15 147.066 408.6 146.966 410.5Z" fill="#8F1739"/>
<path d="M0 171.944C0 164.425 1.09822 157.969 3.29467 152.575C5.49112 147.181 8.51124 142.768 12.355 139.335C16.2903 135.821 21.0035 133.246 26.4947 131.612C31.9858 129.896 38.026 129.038 44.6154 129.038C51.7538 129.038 58.0229 130.018 63.4225 131.98C68.9136 133.859 73.4895 136.515 77.1503 139.948C80.811 143.38 83.5566 147.426 85.3869 152.084C87.3088 156.743 88.2698 161.851 88.2698 167.408C88.2698 178.032 85.4327 186.736 79.7585 193.519C74.1759 200.221 66.6256 205.002 57.1077 207.862L76.1893 216.198C80.3992 218.078 83.1905 220.816 84.5633 224.412C85.9361 228.008 85.1124 232.871 82.0923 239L31.9858 216.566C25.0304 213.542 19.4477 210.396 15.2379 207.127C11.1195 203.858 7.91637 200.384 5.6284 196.707C3.34043 193.029 1.83037 189.147 1.09822 185.061C0.366075 180.974 0 176.602 0 171.944ZM41.5952 201.12L47.4982 203.817C50.2438 201.61 52.669 199.445 54.7739 197.32C56.9704 195.195 58.8008 192.947 60.2651 190.577C61.7294 188.125 62.8276 185.429 63.5597 182.486C64.3834 179.463 64.7952 175.948 64.7952 171.944C64.7952 163.036 63.0106 156.457 59.4414 152.207C55.8722 147.957 50.7929 145.832 44.2035 145.832C37.6142 145.832 32.4891 147.957 28.8284 152.207C25.2592 156.457 23.4745 163.036 23.4745 171.944C23.4745 176.03 23.8406 179.544 24.5728 182.486C25.3049 185.429 26.4031 188.003 27.8674 190.21C29.4233 192.416 31.2994 194.378 33.4958 196.094C35.7838 197.81 38.4836 199.485 41.5952 201.12Z" fill="#8F1739"/>
<path d="M93.2446 187.635C93.2446 180.852 94.2513 175.131 96.2647 170.473C98.3697 165.814 101.253 162.055 104.913 159.194C108.574 156.334 112.921 154.291 117.955 153.065C122.988 151.757 128.479 151.104 134.428 151.104C138.638 151.104 142.802 151.226 146.92 151.471C151.13 151.717 155.386 152.003 159.687 152.329V213.624H137.723V196.707C136.258 200.139 134.657 203.041 132.918 205.411C131.271 207.699 129.486 209.579 127.564 211.05C125.642 212.439 123.583 213.42 121.387 213.992C119.19 214.564 116.902 214.85 114.523 214.85C111.137 214.85 108.116 214.196 105.462 212.888C102.808 211.581 100.566 209.742 98.7357 207.372C96.9054 205.002 95.5326 202.142 94.6174 198.791C93.7022 195.44 93.2446 191.721 93.2446 187.635ZM123.446 199.894C125.642 199.894 127.564 199.118 129.211 197.565C130.95 196.012 132.46 193.805 133.742 190.945C135.023 188.003 136.167 184.489 137.174 180.402C138.18 176.316 139.095 171.739 139.919 166.672C138.638 166.509 137.265 166.386 135.801 166.305C134.428 166.141 133.055 166.059 131.682 166.059C125.368 166.059 120.929 167.326 118.367 169.86C115.896 172.311 114.66 175.867 114.66 180.525C114.66 183.14 114.843 185.633 115.209 188.003C115.575 190.291 116.124 192.334 116.856 194.132C117.68 195.93 118.641 197.361 119.739 198.423C120.838 199.404 122.073 199.894 123.446 199.894Z" fill="#8F1739"/>
<path d="M168.179 167.285C168.179 166.223 168.179 165.038 168.179 163.73C168.27 162.341 168.362 160.992 168.453 159.685C168.545 158.295 168.682 156.988 168.865 155.762C169.048 154.454 169.231 153.31 169.414 152.329H179.161V143.626C180.442 142.4 181.952 141.215 183.691 140.071C185.522 138.926 187.398 137.864 189.32 136.883C191.333 135.903 193.347 135.044 195.36 134.309C197.465 133.573 199.387 133.042 201.126 132.715V153.801C205.518 153.228 209.545 152.861 213.206 152.697C216.867 152.452 220.756 152.329 224.875 152.329C224.875 153.801 224.783 155.149 224.6 156.375C224.509 157.601 224.326 158.786 224.051 159.93C223.776 161.074 223.456 162.259 223.09 163.485C222.724 164.629 222.312 165.896 221.855 167.285C218.651 167.285 215.448 167.244 212.245 167.163C209.133 167.081 205.427 166.877 201.126 166.55V189.474C201.126 193.56 202.27 196.339 204.558 197.81C206.937 199.199 209.683 199.894 212.794 199.894C216.638 199.894 281.917 200.63 286.127 199.894C286.127 200.875 289.115 202.908 288.932 204.216C288.84 205.442 284.718 204.03 284.444 205.338C284.169 206.564 292.012 206.146 291.737 207.372C291.463 208.516 299.47 214.033 299.196 214.85C297.274 215.504 218.803 214.85 214.876 214.85C211.509 214.85 209.225 214.85 206.479 214.85C197.602 214.85 190.83 213.093 186.162 209.579C181.495 205.983 179.161 200.221 179.161 192.294V167.285H168.179Z" fill="#8F1739"/>
<path d="M277.918 187.635C277.918 180.852 278.924 175.131 280.938 170.473C283.043 165.814 285.925 162.055 289.586 159.194C293.247 156.334 297.594 154.291 302.628 153.065C307.661 151.757 313.152 151.104 319.101 151.104C323.311 151.104 327.475 151.226 331.593 151.471C335.803 151.717 340.059 152.003 344.36 152.329V213.624H322.396V196.707C320.931 200.139 319.33 203.041 317.591 205.411C315.944 207.699 314.159 209.579 312.237 211.05C310.315 212.439 308.256 213.42 306.06 213.992C303.863 214.564 301.575 214.85 299.196 214.85C295.809 214.85 292.789 214.196 290.135 212.888C287.481 211.581 285.239 209.742 283.409 207.372C281.578 205.002 280.206 202.142 279.29 198.791C278.375 195.44 277.918 191.721 277.918 187.635ZM308.119 199.894C310.315 199.894 312.237 199.118 313.884 197.565C315.623 196.012 317.133 193.805 318.415 190.945C319.696 188.003 320.84 184.489 321.846 180.402C322.853 176.316 323.768 171.739 324.592 166.672C323.311 166.509 321.938 166.386 320.474 166.305C319.101 166.141 317.728 166.059 316.355 166.059C310.041 166.059 305.602 167.326 303.039 169.86C300.568 172.311 299.333 175.867 299.333 180.525C299.333 183.14 299.516 185.633 299.882 188.003C300.248 190.291 300.797 192.334 301.529 194.132C302.353 195.93 303.314 197.361 304.412 198.423C305.51 199.404 306.746 199.894 308.119 199.894Z" fill="#8F1739"/>
<path d="M375.407 152.329C376.048 156.498 376.506 160.216 376.78 163.485C377.146 166.672 377.329 169.982 377.329 173.415C380.807 165.978 384.925 160.42 389.684 156.743C394.535 152.983 399.477 151.104 404.51 151.104C405.059 153.882 405.471 157.029 405.746 160.543C406.02 163.975 406.158 167.326 406.158 170.595C400.575 170.595 395.953 171.086 392.293 172.066C388.723 173.047 385.84 174.804 383.644 177.338C381.539 179.789 379.983 183.181 378.977 187.513C378.061 191.844 377.512 197.401 377.329 204.185V213.624H355.365V174.396C355.365 170.064 355.182 166.223 354.816 162.872C354.541 159.521 354.266 156.007 353.992 152.329H375.407Z" fill="#8F1739"/>
<path d="M411.628 197.687C419.499 192.375 426.134 187.758 431.534 183.835C436.933 179.912 441.28 176.398 444.575 173.292C447.87 170.187 450.203 167.326 451.576 164.711C453.041 162.096 453.773 159.481 453.773 156.865C453.773 153.106 452.446 150.327 449.792 148.529C447.138 146.731 443.751 145.832 439.633 145.832C436.155 145.832 432.312 146.241 428.102 147.058C423.983 147.875 419.728 149.06 415.335 150.613C414.969 149.714 414.603 148.57 414.237 147.181C413.962 145.71 413.688 144.198 413.413 142.645C413.138 141.01 412.91 139.417 412.727 137.864C412.635 136.311 412.589 134.963 412.589 133.819C417.714 132.184 422.977 130.999 428.376 130.263C433.776 129.446 438.672 129.038 443.065 129.038C448.739 129.038 453.681 129.691 457.891 130.999C462.101 132.225 465.579 133.941 468.324 136.148C471.161 138.273 473.266 140.806 474.639 143.748C476.012 146.69 476.698 149.837 476.698 153.188C476.698 156.947 475.874 160.625 474.227 164.221C472.671 167.817 470.017 171.372 466.265 174.886C462.604 178.318 457.8 181.792 451.851 185.306C445.902 188.82 438.535 192.375 429.749 195.971H478.62V213.624H411.628V197.687Z" fill="#8F1739"/>
<path d="M485.081 171.821C485.081 164.956 485.996 158.868 487.826 153.555C489.657 148.243 492.265 143.789 495.651 140.193C499.129 136.515 503.293 133.737 508.143 131.857C513.085 129.977 518.622 129.038 524.754 129.038C530.886 129.038 536.377 129.977 541.227 131.857C546.169 133.737 550.334 136.515 553.72 140.193C557.198 143.789 559.852 148.243 561.682 153.555C563.512 158.868 564.427 164.956 564.427 171.821C564.427 178.768 563.512 184.938 561.682 190.332C559.852 195.644 557.198 200.139 553.72 203.817C550.334 207.413 547.007 209.826 541.958 213.192C537.078 216.038 530.886 218.242 524.754 218.242C518.622 218.242 513.345 215.998 508.296 213.192C503.246 210.387 498.601 207.021 495.651 203.817C492.265 200.139 489.657 195.644 487.826 190.332C485.996 184.938 485.081 178.768 485.081 171.821ZM524.754 199.728C527.774 199.728 530.292 198.751 532.42 196.923C534.78 194.895 535.786 193.798 537.384 190.945C538.665 188.657 539.58 185.919 540.129 182.732C540.678 179.463 540.953 175.826 540.953 171.821C540.953 163.812 539.717 157.478 537.246 152.82C534.867 148.161 530.703 145.832 524.754 145.832C518.805 145.832 514.596 148.161 512.125 152.82C509.745 157.478 508.555 163.812 508.555 171.821C508.555 175.826 508.83 179.463 509.379 182.732C509.928 185.919 510.843 188.657 512.125 190.945C513.406 193.233 515.028 195.239 517.272 196.923C519.516 198.606 521.734 199.728 524.754 199.728Z" fill="#8F1739"/>
<path d="M572.02 197.687C579.891 192.375 586.526 187.758 591.925 183.835C597.325 179.912 601.672 176.398 604.967 173.292C608.261 170.187 610.595 167.326 611.968 164.711C613.432 162.096 614.164 159.481 614.164 156.865C614.164 153.106 612.837 150.327 610.183 148.529C607.529 146.731 604.143 145.832 600.025 145.832C596.547 145.832 592.703 146.241 588.493 147.058C584.375 147.875 580.119 149.06 575.726 150.613C575.36 149.714 574.994 148.57 574.628 147.181C574.354 145.71 574.079 144.198 573.805 142.645C573.53 141.01 573.301 139.417 573.118 137.864C573.027 136.311 572.981 134.963 572.981 133.819C578.106 132.184 583.368 130.999 588.768 130.263C594.167 129.446 599.064 129.038 603.457 129.038C609.131 129.038 614.073 129.691 618.283 130.999C622.492 132.225 625.97 133.941 628.716 136.148C631.553 138.273 633.658 140.806 635.031 143.748C636.403 146.69 637.09 149.837 637.09 153.188C637.09 156.947 636.266 160.625 634.619 164.221C633.063 167.817 630.409 171.372 626.657 174.886C622.996 178.318 618.191 181.792 612.242 185.306C606.294 188.82 598.926 192.375 590.141 195.971H639.012V213.624H572.02V197.687Z" fill="#8F1739"/>
<path d="M647.764 197.687C655.635 192.375 662.27 187.758 667.669 183.835C673.069 179.912 677.416 176.398 680.711 173.292C684.006 170.187 686.339 167.326 687.712 164.711C689.176 162.096 689.909 159.481 689.909 156.865C689.909 153.106 688.581 150.327 685.927 148.529C683.273 146.731 679.887 145.832 675.769 145.832C672.291 145.832 668.447 146.241 664.237 147.058C660.119 147.875 655.864 149.06 651.471 150.613C651.105 149.714 650.738 148.57 650.372 147.181C650.098 145.71 649.823 144.198 649.549 142.645C649.274 141.01 649.045 139.417 648.862 137.864C648.771 136.311 648.725 134.963 648.725 133.819C653.85 132.184 659.112 130.999 664.512 130.263C669.912 129.446 674.808 129.038 679.201 129.038C684.875 129.038 689.817 129.691 694.027 130.999C698.237 132.225 701.714 133.941 704.46 136.148C707.297 138.273 709.402 140.806 710.775 143.748C712.148 146.69 712.834 149.837 712.834 153.188C712.834 156.947 712.01 160.625 710.363 164.221C708.807 167.817 706.153 171.372 702.401 174.886C698.74 178.318 693.935 181.792 687.987 185.306C682.038 188.82 674.671 192.375 665.885 195.971H714.756V213.624H647.764V197.687Z" fill="#8F1739"/>
<rect x="526.249" y="166.066" width="15.0915" height="15.8849" rx="2.24413" transform="rotate(45 526.249 166.066)" fill="#8F1739"/>
</svg>
